<?xml version="1.0" standalone="no"?>
<!DOCTYPE svg PUBLIC "-//W3C//DTD SVG 20010904//EN"
 "http://www.w3.org/TR/2001/REC-SVG-20010904/DTD/svg10.dtd">
<svg version="1.0" xmlns="http://www.w3.org/2000/svg"
 width="1280.000000pt" height="890.000000pt" viewBox="0 0 1280.000000 890.000000"
 preserveAspectRatio="xMidYMid meet">
<g transform="translate(0.000000,890.000000) scale(0.100000,-0.100000)"
fill="white" stroke="none">
<path d="M4923 8883 c-26 -18 -30 -48 -8 -69 11 -11 15 -38 15 -97 1 -64 3
-78 11 -63 7 11 9 48 5 100 -4 44 -2 96 3 114 11 36 6 38 -26 15z"/>
<path d="M4807 8670 c-23 -54 -30 -105 -22 -165 6 -50 8 -54 25 -45 11 6 17
17 14 25 -4 8 -1 52 6 98 9 61 10 89 2 103 -10 17 -12 16 -25 -16z"/>
<path d="M4453 8467 c-16 -23 -52 -84 -78 -135 -27 -51 -73 -119 -101 -151
-34 -37 -82 -113 -137 -217 -158 -299 -240 -459 -230 -449 6 6 102 165 213
355 112 190 241 409 288 488 83 140 105 194 45 109z"/>
<path d="M4558 8429 c-13 -19 -34 -50 -45 -69 -24 -40 -93 -223 -92 -242 0 -7
38 63 85 155 83 165 103 225 52 156z"/>
<path d="M4897 8431 c-10 -49 -9 -231 2 -231 16 0 23 81 14 175 -7 74 -10 84
-16 56z"/>
<path d="M4715 8420 c-7 -11 2 -30 13 -30 4 0 13 9 20 20 11 17 10 20 -7 20
-11 0 -23 -4 -26 -10z"/>
<path d="M4707 7753 c-6 -448 -19 -726 -52 -1063 -8 -85 -15 -157 -15 -160 0
-3 -29 -5 -65 -5 -67 0 -89 12 -78 42 6 15 -15 17 -35 4 -11 -7 -11 -9 2 -14
26 -10 19 -23 -24 -42 -27 -12 -51 -16 -77 -12 -29 5 -50 0 -98 -24 -74 -36
-151 -47 -180 -26 -30 23 -11 34 85 47 91 12 117 25 88 41 -26 15 -22 36 9 46
l26 9 -36 18 c-21 9 -44 28 -53 42 -21 32 -41 31 -173 -11 -179 -56 -291 -69
-291 -34 0 6 60 135 134 288 198 408 302 663 186 456 -118 -210 -228 -441
-275 -575 -52 -149 -86 -215 -141 -274 -34 -37 -35 -40 -18 -53 17 -12 16 -15
-9 -41 -23 -24 -27 -37 -27 -83 0 -30 -5 -60 -11 -66 -8 -8 -37 -2 -108 24
-507 186 -1814 625 -1835 617 -9 -3 -30 3 -48 14 -51 32 -173 77 -283 105 -79
20 -523 107 -548 107 -3 0 -13 7 -22 16 -21 22 -154 28 -255 13 -143 -21 -357
-105 -411 -161 -27 -28 -69 -121 -69 -151 0 -37 44 -140 88 -203 22 -33 84
-108 137 -169 129 -146 182 -217 217 -293 20 -41 40 -68 59 -77 28 -15 132
-158 122 -168 -3 -3 25 -40 61 -83 36 -42 91 -120 122 -173 31 -53 73 -123 94
-156 23 -37 37 -71 36 -90 -1 -26 -5 -30 -34 -33 -34 -3 -42 -21 -17 -42 10
-8 15 -30 15 -60 0 -47 1 -49 44 -70 30 -14 48 -30 55 -50 9 -28 12 -29 55
-24 l44 7 101 -204 c161 -329 277 -627 513 -1329 162 -483 189 -597 248 -1055
17 -132 40 -280 50 -330 10 -49 32 -153 49 -230 59 -277 108 -627 135 -970 27
-327 27 -343 19 -348 -5 -3 -33 -9 -63 -13 -51 -7 -53 -6 -48 14 7 26 -12 45
-32 32 -8 -6 -27 -10 -41 -10 -31 0 -39 -15 -39 -74 0 -69 15 -80 93 -72 98
10 228 50 345 106 56 27 102 52 102 55 0 3 -30 4 -67 4 -38 -1 -55 -4 -40 -6
20 -3 27 -9 25 -21 -4 -19 -65 -34 -118 -30 l-35 3 -8 155 c-8 161 2 274 25
296 10 9 59 9 220 1 213 -10 238 -7 238 28 0 19 40 66 51 60 15 -10 10 -41
-11 -68 l-20 -25 62 -6 c35 -3 117 -8 183 -10 128 -6 232 -21 252 -38 8 -6 37
-4 89 6 129 27 272 18 315 -20 15 -13 20 -12 47 11 29 24 30 27 16 53 -20 40
-17 77 15 171 47 132 73 141 47 16 -21 -100 -22 -205 -2 -205 8 0 45 16 82 35
38 20 74 33 81 31 8 -3 35 10 62 29 64 46 159 89 256 116 44 12 116 39 160 60
92 45 165 61 165 36 0 -8 -14 -20 -30 -27 -42 -18 -50 -34 -12 -26 33 8 89
-11 111 -38 8 -10 21 -14 32 -11 28 9 34 -19 16 -67 -9 -22 -14 -45 -11 -49
10 -17 46 -9 76 16 24 20 33 23 50 14 18 -10 19 -13 6 -26 -9 -8 -13 -25 -10
-40 4 -23 8 -25 41 -19 21 3 46 0 61 -8 23 -12 27 -11 56 22 33 38 64 39 64 3
0 -39 41 -71 105 -82 94 -16 283 2 370 36 94 36 210 44 325 21 102 -21 266
-72 300 -93 22 -15 25 -15 35 2 33 56 40 60 81 46 28 -9 54 -10 90 -4 85 16
93 1 42 -84 -35 -58 -39 -60 -58 -38 -7 8 -23 15 -35 15 -18 0 -24 -7 -29 -33
-13 -67 -79 -104 -92 -51 -5 20 -12 24 -33 22 -15 -2 -27 -10 -29 -20 -4 -21
55 -48 107 -48 34 0 37 2 51 48 11 34 21 48 36 50 26 4 79 -39 100 -80 14 -28
17 -29 33 -14 10 9 23 16 30 16 24 0 71 -31 71 -48 1 -9 21 -32 45 -50 29 -21
45 -41 46 -55 1 -21 1 -20 8 3 7 25 42 38 126 44 17 1 42 10 57 20 22 14 39
17 75 12 68 -8 44 0 -81 29 -60 13 -114 29 -120 35 -7 7 -1 19 17 38 34 35 34
42 1 42 -14 0 -34 5 -45 10 -21 12 -54 68 -45 78 3 3 138 -38 298 -91 586
-194 849 -247 1213 -247 166 0 274 8 423 31 85 14 99 35 17 26 -49 -5 -55 -3
-61 16 -5 15 0 26 16 39 35 28 57 22 114 -32 69 -65 90 -65 291 0 177 57 246
64 305 30 106 -61 133 -72 141 -59 6 10 28 8 106 -10 143 -34 295 -37 538 -12
226 24 441 28 447 9 3 -9 25 -6 85 10 88 24 135 27 202 11 160 -36 262 -30
327 22 20 16 38 29 40 29 2 0 28 -22 58 -49 64 -58 121 -92 196 -117 84 -28
246 -24 374 10 86 22 102 24 115 12 9 -8 28 -18 44 -21 15 -4 30 -11 33 -16 3
-5 25 -9 48 -9 36 0 44 3 42 18 -1 14 6 17 49 14 28 -2 69 4 94 12 50 18 111
21 111 5 0 -6 -5 -20 -11 -31 -19 -36 3 -42 66 -19 64 24 197 41 327 41 48 0
89 4 92 8 3 5 -9 21 -25 37 -28 26 -34 27 -62 17 -31 -10 -482 -10 -493 1 -2
2 4 24 14 48 77 179 138 537 163 959 6 107 15 199 20 205 6 6 17 5 30 -3 12
-8 24 -10 27 -6 4 4 3 8 -3 10 -31 12 -76 47 -100 78 l-26 35 22 30 c29 39 21
54 -37 69 -65 17 -228 105 -232 126 -6 29 59 20 112 -15 53 -35 64 -32 72 23
6 32 1 41 -57 106 -55 61 -65 68 -71 51 -4 -10 -15 -19 -25 -19 -10 -1 -1 -9
22 -20 44 -22 85 -63 85 -86 0 -32 -34 -15 -246 125 -88 58 -171 112 -183 119
l-23 14 28 29 c26 27 28 37 32 124 l4 94 -28 7 c-54 13 -103 44 -141 89 -20
25 -45 48 -55 51 -10 3 -25 12 -34 21 -13 14 -17 14 -25 2 -5 -8 -9 -27 -9
-42 0 -24 3 -27 20 -22 21 7 59 -27 60 -53 0 -22 -32 -27 -46 -7 -18 25 -27
13 -28 -37 l-1 -41 85 -50 c117 -67 157 -107 144 -141 -9 -24 -25 -20 -64 18
-20 20 -74 51 -125 73 -68 29 -94 46 -110 70 -11 18 -25 32 -30 33 -31 1 -701
409 -1820 1110 -1121 702 -1661 1030 -1694 1030 -7 0 -34 19 -61 42 -26 24
-80 61 -121 82 -105 55 -139 83 -160 131 -11 25 -29 47 -46 54 -15 7 -86 38
-158 68 -71 31 -134 60 -140 65 -6 5 -5 16 3 29 16 24 18 21 -35 48 -24 12
-43 26 -43 31 0 6 -12 3 -26 -6 l-25 -17 48 -26 c26 -14 53 -37 60 -51 15 -29
17 -76 4 -84 -4 -3 -62 13 -127 35 -155 52 -267 79 -329 79 -42 -1 -47 -2 -30
-12 49 -28 40 -48 -23 -49 -43 -1 -45 -1 -19 -11 54 -19 36 -27 -98 -43 -100
-12 -203 -55 -132 -55 13 0 32 -9 42 -20 31 -34 7 -45 -98 -44 -108 1 -170 22
-175 62 -4 23 -2 24 59 20 41 -2 63 1 66 9 2 6 -6 13 -19 15 -15 2 -24 11 -26
26 -3 17 -10 22 -32 22 -16 0 -31 4 -34 9 -6 9 -66 25 -81 21 -5 -1 -27 -2
-49 -1 -45 2 -83 -20 -88 -51 -3 -24 -10 -25 -74 -13 -32 6 -35 4 -29 -14 7
-24 -11 -37 -31 -20 -11 9 -20 9 -40 0 -32 -14 -34 -14 -34 4 0 9 11 20 24 25
22 8 46 37 46 54 0 3 -27 6 -61 6 -50 0 -62 3 -65 18 -7 24 -58 52 -84 45 -11
-3 -28 1 -38 10 -9 8 -27 18 -39 21 -12 4 -34 17 -49 28 -19 16 -38 21 -64 19
-29 -2 -44 3 -63 22 -48 49 -166 93 -181 68 -4 -7 1 -11 13 -11 11 0 27 -7 36
-16 15 -16 15 -18 0 -33 -14 -15 -18 -15 -45 1 -16 9 -32 13 -35 8 -3 -4 2
-10 10 -14 17 -6 20 -42 5 -51 -21 -13 -8 -22 37 -29 52 -7 127 -47 137 -72
10 -27 0 -27 -56 -1 -29 14 -88 35 -132 47 -106 29 -156 52 -200 90 -64 57
-41 67 45 20 30 -16 68 -29 84 -29 25 0 19 4 -31 23 -73 27 -126 57 -132 74
-8 26 30 23 89 -8 35 -18 72 -30 87 -28 24 3 27 8 27 38 0 32 -3 36 -50 54
-27 11 -73 29 -100 41 l-51 22 0 56 c-1 65 -1 65 79 42 97 -27 232 -45 524
-70 389 -33 501 -51 476 -76 -6 -6 -32 -14 -59 -18 -35 -6 -41 -9 -19 -10 42
-2 105 -20 105 -31 0 -18 -77 -23 -267 -17 -106 3 -195 2 -198 -3 -3 -4 93
-10 213 -12 162 -3 228 -9 259 -20 33 -12 45 -13 53 -3 7 8 4 17 -10 30 -11
10 -17 22 -14 26 3 5 60 9 127 9 88 1 117 3 105 11 -10 5 -18 19 -18 29 0 16
7 20 35 20 78 0 231 -23 281 -41 30 -11 59 -17 65 -14 6 4 53 2 104 -6 77 -10
97 -10 109 1 37 30 23 34 -222 55 -197 17 -292 36 -342 67 -33 21 -33 23 -12
26 14 2 20 8 15 15 -5 7 -8 35 -8 62 0 44 -3 50 -22 53 -15 2 -32 -7 -48 -24
l-26 -28 -24 29 c-32 40 -32 72 0 87 l26 12 -31 13 c-43 18 -37 47 10 52 l35
3 -40 12 c-23 7 -40 18 -40 26 0 12 25 16 135 20 127 5 133 6 98 18 -21 8 -42
21 -47 29 -7 12 -36 18 -127 25 -66 5 -127 14 -137 19 -13 7 -23 7 -32 -1 -8
-7 -53 -8 -137 -4 -120 7 -178 2 -178 -14 0 -4 42 -6 92 -4 92 3 168 -11 171
-33 1 -6 -50 -11 -133 -12 -130 -2 -420 -22 -420 -29 0 -2 109 -1 243 2 237 6
388 -3 411 -26 17 -17 -38 -20 -294 -18 -228 3 -259 1 -295 -15 -41 -18 -85
-54 -85 -69 0 -12 59 -10 233 9 140 15 162 16 199 3 59 -21 83 -58 83 -130 0
-56 1 -59 28 -64 17 -4 27 -11 25 -18 -4 -10 -54 -13 -211 -13 -221 0 -244 5
-219 45 16 26 15 82 -1 104 -13 18 -23 18 -163 7 -82 -6 -227 -16 -322 -21
-96 -6 -199 -16 -229 -21 -92 -17 -88 -33 -87 349 2 416 -13 372 -23 -70 -5
-179 -12 -330 -16 -334 -4 -5 -18 -2 -29 5 -12 8 -67 29 -122 47 -166 56 -226
114 -136 129 28 5 40 12 40 24 0 9 5 22 12 29 9 9 4 12 -22 12 -19 0 -46 -3
-60 -7 l-25 -7 25 -6 c37 -9 32 -34 -7 -38 -25 -2 -33 -8 -33 -22 0 -33 -18
-32 -83 4 -95 53 -149 46 -67 -8 22 -14 40 -31 40 -38 0 -16 -104 -2 -149 21
-74 38 -80 78 -10 66 31 -5 39 -4 39 8 0 8 -13 17 -32 21 -17 3 -37 11 -45 17
-18 16 -16 39 3 39 12 0 15 7 11 27 -6 32 7 63 27 63 8 0 15 -19 19 -52 4 -32
14 -60 26 -72 19 -19 21 -19 78 -2 34 10 109 20 180 23 l122 6 3 31 c2 23 8
31 22 31 18 0 19 -7 17 -115 -1 -63 1 -123 4 -132 8 -21 75 -26 75 -5 0 6 7
86 15 177 8 91 20 390 25 665 12 601 34 997 70 1276 5 41 10 93 10 116 0 39
-3 44 -37 62 -21 10 -47 21 -59 25 l-21 6 -6 -467z"/>
<path d="M7353 8199 c-73 -12 -161 -47 -173 -69 -5 -10 -20 -20 -32 -22 -22
-3 -24 -12 -45 -168 -42 -312 -83 -799 -83 -996 l0 -62 88 -7 c48 -4 157 -15
242 -26 85 -10 173 -19 196 -19 38 0 42 3 47 29 8 40 25 43 101 16 l68 -24
-15 22 c-11 16 -28 23 -65 27 -51 5 -92 31 -92 57 0 21 41 15 109 -17 35 -17
66 -28 70 -25 13 14 -19 41 -61 51 -51 13 -85 32 -93 53 -12 31 14 31 93 0 45
-18 85 -29 89 -25 11 11 -25 31 -118 65 -90 33 -120 53 -99 66 15 9 63 -3 126
-32 30 -13 58 -22 63 -18 19 11 -1 35 -44 54 -47 21 -62 38 -47 53 14 14 323
-161 421 -238 64 -51 129 -126 143 -164 6 -16 148 -33 175 -21 19 9 25 8 29
-4 13 -32 20 -12 22 63 3 74 8 125 33 336 13 112 8 282 -9 311 -10 16 -11 -10
-6 -117 l7 -136 -27 -27 c-30 -30 -52 -28 -49 3 2 13 -8 29 -27 42 -16 12 -54
54 -84 93 -150 199 -289 332 -410 393 -56 28 -80 34 -132 34 -57 0 -63 2 -66
23 -2 17 -9 22 -33 22 -16 -1 -40 -4 -51 -8 -17 -6 -23 -3 -27 12 -3 15 -17
22 -46 27 -22 4 -46 13 -52 20 -14 17 -10 18 70 19 37 0 66 5 68 11 2 7 -31
13 -98 18 -136 8 -181 16 -176 30 10 30 335 28 345 -3 2 -6 21 -11 42 -11 20
0 54 -7 75 -16 51 -21 55 -11 8 20 -81 53 -275 78 -457 57 -54 -6 -101 -9
-104 -6 -11 11 23 33 78 51 89 29 218 24 365 -16 135 -37 189 -48 140 -29 -56
22 -58 51 -4 59 l34 5 -79 45 c-85 48 -111 74 -87 89 18 11 0 17 -102 30 -90
13 -180 12 -254 0z"/>
<path d="M5280 8180 c0 -5 5 -10 10 -10 6 0 10 5 10 10 0 6 -4 10 -10 10 -5 0
-10 -4 -10 -10z"/>
<path d="M7850 8118 c107 -68 160 -87 160 -58 0 16 -186 100 -219 100 -3 0 23
-19 59 -42z"/>
<path d="M8047 8013 c-18 -17 -2 -35 55 -64 77 -39 171 -128 250 -236 60 -82
72 -96 62 -69 -8 22 13 28 43 12 40 -21 90 -77 165 -186 36 -52 82 -113 103
-135 l36 -40 -26 51 c-65 126 -234 316 -291 330 -55 13 -99 74 -54 74 11 0 20
2 20 3 0 11 -82 88 -109 101 -21 11 -31 24 -31 40 0 12 -9 31 -20 41 -18 16
-20 16 -26 1 -11 -29 -46 -17 -100 34 -52 49 -64 56 -77 43z"/>
<path d="M5404 7855 c-6 -13 65 -109 74 -100 5 4 -57 115 -64 115 -3 0 -7 -7
-10 -15z"/>
<path d="M7657 7864 c-14 -14 -7 -24 17 -24 14 0 62 -12 106 -26 45 -14 84
-23 87 -21 10 11 -51 40 -110 53 -34 7 -69 15 -78 19 -8 3 -18 2 -22 -1z"/>
<path d="M4867 7790 c-28 -261 -42 -968 -19 -991 10 -10 12 27 12 186 0 110 5
340 11 510 11 311 10 417 -4 295z"/>
<path d="M4283 7799 c-7 -7 -22 -12 -34 -13 -17 -1 -25 -10 -31 -35 -5 -18 -8
-35 -6 -37 2 -2 17 0 33 4 24 7 32 17 42 50 13 46 13 48 -4 31z"/>
<path d="M5344 7763 c32 -85 60 -152 63 -149 5 5 -57 166 -64 166 -3 0 -2 -8
1 -17z"/>
<path d="M701 7510 c-14 -64 -14 -180 -1 -180 6 0 10 1 10 3 0 1 7 36 15 78
22 116 -1 209 -24 99z"/>
<path d="M5554 7538 c8 -36 45 -122 51 -116 3 2 -9 36 -26 74 -17 38 -28 57
-25 42z"/>
<path d="M5471 7395 c-1 -29 10 -65 20 -65 13 0 10 20 -6 55 -10 23 -14 26
-14 10z"/>
<path d="M5770 7292 c0 -33 -6 -56 -16 -66 -14 -14 -18 -14 -46 0 -29 15 -32
15 -40 -1 -18 -31 -57 -37 -99 -16 -29 16 -37 17 -32 6 8 -22 -6 -65 -21 -65
-8 0 -16 9 -19 20 -3 12 -14 20 -26 20 -16 0 -21 -6 -21 -25 0 -14 -9 -44 -20
-66 l-21 -40 73 7 c62 5 76 4 87 -10 22 -27 1 -36 -80 -37 -53 -1 -89 5 -127
20 -55 22 -103 26 -137 11 -14 -6 -7 -7 22 -3 57 7 93 -3 93 -26 0 -25 -33
-32 -107 -25 -42 5 -69 2 -96 -9 -32 -14 -37 -20 -37 -49 0 -47 -31 -92 -85
-124 -33 -19 -43 -30 -36 -37 6 -6 11 -19 11 -29 0 -22 1 -22 65 -2 59 19 99
13 115 -16 8 -15 6 -23 -12 -40 l-22 -20 31 0 c40 0 63 -9 63 -24 0 -27 -56
-40 -195 -46 l-140 -5 -3 -44 -3 -44 53 7 c29 4 112 18 183 32 72 14 170 30
219 35 49 5 95 14 102 20 18 14 28 -6 14 -30 -5 -11 -10 -22 -10 -25 0 -13 60
-4 133 19 43 14 91 25 107 25 53 0 107 -38 79 -56 -6 -3 -104 -12 -217 -18
l-207 -12 195 -5 c116 -3 203 -10 215 -16 16 -9 17 -13 5 -17 -8 -2 -22 -7
-30 -9 -8 -3 59 -3 150 -1 91 2 215 5 275 6 123 2 98 5 -153 17 -95 5 -176 11
-179 15 -13 13 21 35 80 50 83 21 202 34 437 46 248 13 290 18 290 35 0 9 -16
15 -47 17 -35 2 -48 7 -48 18 0 10 12 16 32 18 22 2 39 13 57 37 l26 33 -40
16 c-22 9 -48 16 -58 16 -10 0 -25 9 -35 20 -15 18 -29 20 -124 20 -119 0
-299 22 -316 39 -20 20 48 26 263 25 196 -1 211 0 174 13 -41 14 -93 58 -82
69 4 3 16 1 27 -6 13 -7 21 -7 21 -1 0 6 -9 15 -20 21 -11 6 -20 17 -20 25 0
13 -23 15 -137 14 -157 -1 -189 -7 -185 -33 3 -16 -1 -18 -30 -12 -18 3 -91
11 -161 16 -135 10 -151 14 -143 35 2 7 0 17 -6 23 -15 15 31 42 73 42 35 0
66 -20 52 -33 -3 -4 32 -7 80 -7 47 0 89 5 92 10 4 6 -7 10 -24 10 -34 0 -43
23 -13 35 9 3 76 6 149 6 80 -1 134 3 138 9 7 11 -99 64 -190 95 -75 26 -193
31 -256 11 -69 -23 -79 -17 -79 42 0 32 -5 54 -15 62 -13 11 -15 6 -15 -38z"/>
<path d="M8845 7223 c16 -69 87 -162 154 -205 57 -36 72 -36 38 0 -14 15 -33
44 -41 64 -9 20 -25 39 -36 43 -11 4 -38 33 -60 66 -44 64 -67 77 -55 32z"/>
<path d="M6400 7137 l-25 -11 27 -4 c15 -2 35 -13 43 -25 12 -17 17 -19 27 -9
7 7 20 12 29 12 23 0 291 -182 282 -191 -4 -4 -51 -14 -103 -22 l-95 -15 101
-1 c56 0 122 2 148 5 l47 7 -59 31 c-32 18 -103 67 -158 111 -99 78 -182 125
-219 124 -11 0 -31 -5 -45 -12z"/>
<path d="M3618 7017 c-7 -13 -79 -120 -159 -237 -81 -118 -158 -238 -173 -267
-27 -53 -34 -89 -16 -78 6 3 10 13 10 22 0 8 17 35 39 59 21 24 55 75 75 113
20 39 53 91 74 118 21 26 66 100 101 163 35 63 66 118 68 123 2 4 2 7 -1 7 -3
0 -11 -10 -18 -23z"/>
<path d="M9090 6936 c0 -42 29 -95 62 -112 17 -9 32 -13 35 -10 11 11 -29 84
-63 117 l-34 33 0 -28z"/>
<path d="M6788 6831 c-106 -12 -71 -21 78 -20 118 1 142 3 114 11 -47 14 -123
17 -192 9z"/>
<path d="M7905 6821 l-50 -7 40 -12 c22 -7 57 -15 77 -18 41 -7 96 3 82 15 -9
8 -88 32 -95 29 -2 0 -26 -4 -54 -7z"/>
<path d="M7253 6813 c-13 -2 -23 -9 -23 -15 0 -6 12 -8 31 -4 17 3 49 6 71 6
24 0 37 4 33 10 -6 10 -68 11 -112 3z"/>
<path d="M7125 6784 c-5 -2 -50 -10 -100 -18 -80 -12 -85 -14 -40 -15 28 -1
68 -8 90 -16 34 -12 43 -12 62 0 12 8 27 24 33 35 9 17 8 20 -12 19 -13 0 -27
-2 -33 -5z"/>
<path d="M7842 6755 c88 -14 128 -28 128 -44 0 -16 -30 -21 -93 -16 -51 4 -56
3 -27 -5 19 -5 67 -12 107 -16 l72 -7 -14 39 c-16 48 -33 54 -160 59 l-100 5
87 -15z"/>
<path d="M4560 6742 c-25 -8 -50 -16 -57 -18 -6 -2 -9 -12 -6 -23 4 -15 13
-21 34 -21 16 0 38 -9 50 -21 14 -14 24 -18 31 -11 7 7 2 19 -17 38 l-28 28
29 23 c33 26 27 27 -36 5z"/>
<path d="M7190 6745 c-11 -13 -9 -15 15 -15 16 0 25 5 23 12 -7 19 -24 20 -38
3z"/>
<path d="M4830 6705 c0 -19 11 -19 36 0 18 14 18 14 -8 15 -18 0 -28 -5 -28
-15z"/>
<path d="M4300 6701 c-38 -7 -46 -27 -17 -45 13 -8 21 -8 35 2 45 32 62 36 75
18 12 -16 14 -16 25 8 l12 26 -48 -1 c-26 -1 -63 -4 -82 -8z"/>
<path d="M8330 6701 c26 -15 178 -42 217 -39 29 2 11 8 -77 26 -123 24 -166
28 -140 13z"/>
<path d="M8657 6694 c4 -10 13 -14 27 -10 11 3 30 6 41 7 l20 0 -20 9 c-11 5
-32 9 -47 9 -21 1 -26 -3 -21 -15z"/>
<path d="M7060 6690 c-19 -6 -12 -8 30 -9 39 0 51 2 40 9 -17 11 -35 11 -70 0z"/>
<path d="M6791 6674 c-31 -14 -32 -16 -17 -33 15 -16 15 -21 1 -47 -8 -16 -15
-38 -15 -49 0 -12 -5 -26 -12 -33 -9 -9 -3 -12 28 -12 l39 0 -25 20 c-23 17
-23 19 -6 26 29 11 292 -3 385 -21 85 -17 141 -38 141 -54 0 -12 -27 -21 -44
-15 -8 3 -16 2 -19 -3 -3 -5 29 -14 72 -21 43 -7 131 -30 197 -52 147 -50 262
-80 305 -80 57 0 21 17 -123 60 -173 51 -235 77 -220 92 7 7 46 3 139 -15 144
-29 298 -78 519 -166 132 -53 150 -58 161 -44 17 22 7 33 -27 33 -16 0 -41 5
-55 12 -29 13 -70 87 -56 101 4 4 35 11 67 14 32 3 65 10 71 15 16 13 6 31
-10 21 -7 -4 -39 -11 -72 -14 -33 -4 -70 -10 -82 -14 -52 -17 -8 82 46 104 34
15 94 8 114 -13 8 -10 29 -12 69 -8 77 7 134 -16 188 -74 51 -56 73 -105 95
-209 9 -44 18 -81 21 -84 2 -2 4 34 5 80 1 46 4 95 8 109 8 27 15 28 116 19
49 -4 50 -4 73 38 26 47 38 131 28 188 -11 58 -21 31 -21 -55 0 -91 -12 -113
-47 -91 -12 7 -51 20 -86 27 -71 15 -112 36 -112 59 0 19 2 19 47 0 37 -15 63
-14 63 3 0 5 -14 13 -32 18 -38 11 -48 33 -19 41 26 7 28 23 2 23 -11 0 -26 7
-35 15 -13 13 -19 13 -35 3 -17 -10 -25 -10 -48 4 -66 39 -143 52 -318 53
-108 1 -175 -3 -184 -9 -25 -19 -208 -10 -367 18 -158 27 -224 32 -224 17 0
-14 39 -21 118 -21 82 0 156 -15 173 -36 18 -22 -30 -27 -200 -22 -120 4 -170
10 -215 26 -44 15 -66 18 -90 11 -48 -14 -462 -1 -458 14 6 21 18 28 68 36
l49 9 -50 0 c-27 0 -65 -6 -84 -14z"/>
<path d="M4440 6650 c-8 -16 -8 -20 3 -20 8 0 17 9 20 20 3 11 1 20 -4 20 -4
0 -13 -9 -19 -20z"/>
<path d="M4963 6663 c15 -2 37 -2 50 0 12 2 0 4 -28 4 -27 0 -38 -2 -22 -4z"/>
<path d="M8657 6640 c-4 -15 0 -20 13 -20 25 0 36 20 19 31 -21 13 -26 11 -32
-11z"/>
<path d="M4518 6628 c16 -8 28 -8 45 0 19 9 17 11 -23 11 -40 0 -42 -2 -22
-11z"/>
<path d="M6690 6581 c-15 -30 -12 -33 15 -15 28 18 33 34 10 34 -8 0 -19 -9
-25 -19z"/>
<path d="M4568 6583 c6 -2 18 -2 25 0 6 3 1 5 -13 5 -14 0 -19 -2 -12 -5z"/>
<path d="M5365 6559 c-4 -6 -5 -13 -2 -16 7 -7 27 6 27 18 0 12 -17 12 -25 -2z"/>
<path d="M6110 6541 c-33 -6 -34 -7 -10 -14 14 -4 79 -6 145 -6 86 1 109 3 80
9 -65 12 -177 18 -215 11z"/>
<path d="M6655 6520 c-3 -5 1 -10 9 -10 9 0 16 5 16 10 0 6 -4 10 -9 10 -6 0
-13 -4 -16 -10z"/>
<path d="M5185 6493 c-71 -8 -219 -37 -205 -40 8 -1 87 8 175 21 128 19 152
34 30 19z"/>
<path d="M6943 6493 c9 -2 25 -2 35 0 9 3 1 5 -18 5 -19 0 -27 -2 -17 -5z"/>
<path d="M7160 6460 c8 -5 22 -10 30 -10 13 0 13 1 0 10 -8 5 -22 10 -30 10
-13 0 -13 -1 0 -10z"/>
<path d="M8193 6463 c9 -2 25 -2 35 0 9 3 1 5 -18 5 -19 0 -27 -2 -17 -5z"/>
<path d="M5478 6453 c17 -2 47 -2 65 0 17 2 3 4 -33 4 -36 0 -50 -2 -32 -4z"/>
<path d="M5151 6429 c-24 -5 -47 -11 -50 -15 -8 -9 102 4 131 15 22 9 22 10
-7 9 -16 0 -50 -4 -74 -9z"/>
<path d="M6850 6424 c236 -28 441 -67 654 -126 78 -21 115 -27 130 -20 16 7
29 3 60 -20 58 -42 176 -74 176 -47 0 30 -244 100 -543 154 -92 17 -154 34
-164 44 -17 16 -176 29 -353 29 -74 0 -74 0 40 -14z"/>
<path d="M4936 6422 c-3 -3 -6 -13 -6 -23 0 -16 3 -17 25 -7 14 6 25 14 25 18
0 10 -37 20 -44 12z"/>
<path d="M6033 6389 c7 -52 -11 -89 -44 -89 -15 0 -19 7 -19 33 0 51 -28 71
-77 58 -21 -6 -78 -11 -128 -12 -132 -1 -136 -3 -151 -74 -6 -33 -14 -66 -16
-73 -6 -25 26 -37 61 -22 36 14 39 25 11 33 -11 3 -20 12 -20 20 0 8 9 17 20
20 11 3 20 14 20 25 0 23 25 46 40 37 5 -3 10 -34 10 -68 l0 -62 38 0 c37 0
39 1 48 42 12 50 10 53 -28 53 -38 0 -35 18 6 35 47 20 63 11 71 -38 15 -100
12 -95 61 -95 49 1 51 4 28 29 -22 24 -11 49 21 49 23 0 25 -3 25 -46 l0 -47
40 7 c23 3 49 2 60 -4 19 -10 20 -7 20 90 0 98 0 100 -24 100 -13 0 -36 10
-51 22 l-28 22 6 -45z"/>
<path d="M6193 6378 c-6 -7 -10 -48 -10 -90 l0 -78 32 -6 c18 -3 43 -4 56 -2
23 3 24 6 25 90 0 80 -1 87 -20 92 -35 10 -73 7 -83 -6z"/>
<path d="M5369 6364 c-17 -21 -24 -126 -10 -153 14 -26 37 -27 51 -2 16 31 13
137 -6 155 -19 20 -19 20 -35 0z"/>
<path d="M6337 6352 c-3 -16 -3 -54 0 -85 5 -50 8 -57 27 -57 33 0 46 20 45
70 -2 71 -11 95 -41 98 -21 3 -26 -2 -31 -26z"/>
<path d="M6456 6298 c-8 -94 -2 -105 46 -92 42 12 58 44 58 117 l0 57 -49 0
-48 0 -7 -82z"/>
<path d="M5487 6338 c-4 -18 -9 -43 -13 -55 -5 -19 -2 -23 17 -23 12 0 30 -7
39 -15 15 -14 18 -11 29 38 15 69 8 87 -34 87 -29 0 -33 -4 -38 -32z"/>
<path d="M6610 6287 l0 -85 33 -5 c17 -2 33 -4 34 -3 0 0 3 39 4 86 l4 85 -38
3 -37 3 0 -84z"/>
<path d="M6741 6339 c-14 -40 -14 -73 0 -122 10 -36 12 -38 47 -35 l37 3 5 87
5 87 -29 5 c-47 10 -54 7 -65 -25z"/>
<path d="M5222 6334 c-29 -23 -35 -24 -45 -11 -7 8 -24 17 -38 21 -32 7 -39
-5 -39 -72 0 -62 -7 -71 -60 -74 -39 -3 -45 0 -45 17 0 13 7 20 20 20 13 0 21
9 26 30 4 17 10 38 14 47 11 26 -16 32 -60 14 l-37 -16 4 -75 c2 -41 8 -79 14
-85 8 -8 28 -5 72 9 44 15 87 21 150 21 l89 0 7 70 c11 113 -7 135 -72 84z"/>
<path d="M6887 6298 c-4 -29 -7 -72 -7 -95 l0 -43 50 0 49 0 -2 74 c-2 78 2
92 28 83 12 -5 15 -23 15 -80 0 -69 2 -74 25 -85 66 -30 77 -12 73 108 l-3 75
-35 1 c-19 1 -69 4 -111 8 l-76 7 -6 -53z"/>
<path d="M8245 6330 c3 -5 13 -10 21 -10 8 0 14 5 14 10 0 6 -9 10 -21 10 -11
0 -17 -4 -14 -10z"/>
<path d="M4887 6303 c-10 -10 -8 -126 3 -143 13 -22 22 -6 28 49 7 73 -8 118
-31 94z"/>
<path d="M7189 6294 c-12 -15 -15 -108 -4 -143 6 -19 69 -46 85 -36 5 3 10 44
10 91 0 82 -1 85 -26 94 -35 14 -49 12 -65 -6z"/>
<path d="M7320 6206 c0 -74 2 -85 19 -91 10 -3 26 -14 36 -25 10 -11 26 -20
37 -20 16 0 18 9 18 68 0 70 15 109 40 100 8 -2 14 -25 15 -64 3 -72 12 -104
29 -104 7 0 21 -9 32 -21 17 -19 19 -19 31 -3 8 11 13 50 13 106 l0 88 -28 0
c-15 0 -68 11 -117 25 -132 36 -125 40 -125 -59z"/>
<path d="M7646 6138 c-11 -95 -9 -105 28 -127 18 -12 37 -21 42 -21 12 0 4
172 -8 188 -6 6 -21 12 -33 12 -19 0 -23 -7 -29 -52z"/>
<path d="M7770 6091 c0 -81 14 -128 42 -137 11 -3 22 -4 24 -1 3 2 7 43 11 89
5 81 5 86 -18 101 -48 34 -59 24 -59 -52z"/>
<path d="M9457 6136 c-57 -24 -121 -65 -144 -94 -9 -11 -13 -59 -13 -159 0
-120 -3 -151 -21 -198 -24 -65 -42 -76 -67 -44 -12 14 -25 20 -35 16 -29 -11
-20 -22 57 -70 94 -60 173 -140 211 -214 17 -32 31 -60 33 -62 1 -3 12 5 25
17 30 28 33 28 45 -7 6 -17 34 -46 69 -72 32 -23 74 -55 94 -70 42 -32 51 -29
42 12 -4 22 -2 29 11 29 20 0 20 9 0 31 -23 26 -10 39 26 26 26 -10 32 -8 54
16 28 30 33 31 73 16 43 -16 88 -64 169 -180 41 -59 95 -130 120 -158 32 -36
44 -56 39 -70 -4 -13 0 -20 15 -24 17 -4 20 0 20 26 0 59 -29 169 -56 216 -40
68 -146 175 -156 158 -4 -9 -17 -12 -33 -9 -23 4 -25 8 -19 38 9 47 -1 57 -37
38 -24 -12 -34 -13 -45 -3 -21 17 -17 29 11 29 33 0 32 11 -7 54 -32 37 -56
44 -75 25 -15 -15 -33 -3 -33 22 0 11 -7 34 -16 51 -10 20 -14 42 -10 63 8 41
-10 56 -19 16 -3 -16 -15 -37 -26 -47 -19 -17 -20 -16 -47 8 -15 14 -36 28
-47 30 -29 5 -27 43 3 42 12 0 22 1 22 3 0 11 -25 49 -36 56 -26 15 -14 27 26
27 22 0 49 6 60 12 18 11 28 5 97 -63 122 -118 218 -204 287 -259 54 -43 66
-58 85 -110 16 -42 30 -65 47 -72 21 -10 24 -18 24 -62 0 -61 14 -51 29 22 14
68 14 186 0 254 -44 207 -262 517 -447 636 -132 85 -286 107 -405 58z"/>
<path d="M6633 6120 c51 -13 260 -40 305 -40 68 1 11 17 -98 29 -178 18 -251
22 -207 11z"/>
<path d="M4940 6100 c-24 -8 -23 -8 7 -9 21 -1 37 -8 45 -21 18 -28 25 -25 25
10 0 26 -4 30 -26 29 -14 -1 -37 -5 -51 -9z"/>
<path d="M7906 6041 c-3 -36 -9 -80 -12 -98 -6 -30 -4 -32 32 -42 21 -6 42 -7
47 -2 4 4 5 51 1 103 -7 95 -7 96 -34 100 -27 4 -28 3 -34 -61z"/>
<path d="M4878 6083 c7 -3 16 -2 19 1 4 3 -2 6 -13 5 -11 0 -14 -3 -6 -6z"/>
<path d="M6672 6059 c26 -15 118 -24 118 -12 0 11 -56 23 -105 23 -25 -1 -27
-2 -13 -11z"/>
<path d="M6840 6040 c-12 -8 -9 -10 13 -10 16 0 26 4 22 10 -8 12 -16 12 -35
0z"/>
<path d="M7278 6033 c6 -2 18 -2 25 0 6 3 1 5 -13 5 -14 0 -19 -2 -12 -5z"/>
<path d="M7388 6011 c85 -24 172 -68 172 -88 0 -10 -9 -12 -37 -8 -28 5 -21 0
27 -18 112 -41 189 -87 145 -87 -8 0 -59 13 -113 29 -97 28 -231 50 -202 33 8
-5 31 -12 51 -16 19 -3 44 -14 55 -24 14 -13 30 -17 60 -14 31 3 63 -6 137
-37 90 -38 157 -52 157 -32 0 5 -14 11 -32 15 -35 7 -68 32 -68 53 0 17 9 16
55 -3 49 -20 67 -13 59 23 -4 16 -12 34 -18 41 -35 37 -341 133 -468 147 -52
5 -51 5 20 -14z"/>
<path d="M8044 6017 c-3 -8 -4 -49 -2 -93 3 -71 5 -79 23 -79 17 0 20 6 17 43
-3 43 17 92 38 92 6 0 10 -36 10 -85 0 -83 1 -85 26 -91 35 -9 44 7 44 87 l0
65 -62 37 c-67 40 -86 44 -94 24z"/>
<path d="M6328 6013 c12 -2 32 -2 45 0 12 2 2 4 -23 4 -25 0 -35 -2 -22 -4z"/>
<path d="M8660 5993 c0 -21 2 -24 15 -13 8 7 15 16 15 20 0 4 -7 10 -15 14
-11 4 -15 -2 -15 -21z"/>
<path d="M6695 5990 c-4 -6 14 -10 47 -9 45 1 49 3 23 9 -44 11 -63 11 -70 0z"/>
<path d="M7205 5975 c93 -22 269 -55 273 -51 6 7 -213 55 -273 60 l-60 5 60
-14z"/>
<path d="M8760 5975 c8 -10 59 -54 114 -98 54 -45 121 -111 149 -147 51 -67
56 -53 10 27 -53 91 -153 180 -248 219 -37 15 -38 15 -25 -1z"/>
<path d="M6880 5970 c0 -5 13 -10 29 -10 16 0 38 -3 48 -6 16 -6 16 -5 -2 9
-22 18 -75 23 -75 7z"/>
<path d="M8662 5930 c0 -19 2 -27 5 -17 2 9 2 25 0 35 -3 9 -5 1 -5 -18z"/>
<path d="M7081 5936 c7 -8 163 -45 168 -41 8 9 -65 32 -118 38 -29 4 -52 5
-50 3z"/>
<path d="M8256 5905 c-13 -35 -17 -121 -7 -148 16 -41 45 -33 45 13 1 25 6 36
19 38 14 3 17 -4 17 -36 0 -22 3 -54 6 -72 7 -30 9 -32 41 -27 31 5 36 3 55
-29 11 -18 24 -34 29 -34 15 0 22 49 16 110 -6 74 -12 83 -38 69 -26 -13 -59
13 -59 47 0 33 -16 38 -40 14 -29 -29 -48 -19 -52 26 -3 40 -21 56 -32 29z"/>
<path d="M5682 5839 l3 -64 44 -3 c42 -3 72 10 58 25 -4 4 -13 1 -19 -5 -18
-18 -38 -14 -38 7 0 11 17 33 37 50 20 17 34 34 30 37 -4 4 -32 9 -63 12 l-55
5 3 -64z"/>
<path d="M5856 5888 c-2 -7 -7 -37 -10 -65 l-5 -53 44 0 c43 0 43 0 50 43 3
23 9 49 11 58 3 12 -2 17 -18 16 -13 -1 -33 2 -46 7 -15 5 -23 3 -26 -6z"/>
<path d="M8661 5803 c0 -63 3 -82 9 -65 11 27 11 27 54 2 36 -22 52 -48 38
-62 -11 -11 19 -77 35 -78 6 0 25 -11 41 -25 33 -28 52 -32 52 -12 0 8 -19 22
-42 33 -24 10 -43 26 -43 34 0 18 41 26 58 12 8 -7 19 -5 34 8 l23 18 -88 79
c-48 43 -106 94 -129 112 l-43 33 1 -89z"/>
<path d="M6457 5873 c-10 -9 -8 -105 2 -121 5 -8 22 -12 42 -10 32 3 34 5 37
44 4 60 -50 119 -81 87z"/>
<path d="M6600 5795 l0 -65 40 0 c31 0 40 4 40 18 0 9 3 27 6 39 7 27 -34 73
-66 73 -18 0 -20 -6 -20 -65z"/>
<path d="M6762 5847 c-6 -6 -12 -34 -13 -61 -3 -46 -2 -49 30 -62 18 -8 37
-14 42 -14 11 0 12 100 1 116 -14 22 -49 34 -60 21z"/>
<path d="M7178 5843 c7 -3 16 -2 19 1 4 3 -2 6 -13 5 -11 0 -14 -3 -6 -6z"/>
<path d="M6892 5768 l3 -73 34 0 c37 -1 51 21 51 80 0 28 -6 37 -30 50 -55 29
-61 23 -58 -57z"/>
<path d="M7210 5838 c8 -9 451 -110 457 -105 2 3 -20 13 -49 22 -29 10 -66 23
-83 30 -16 7 -84 20 -149 29 -66 10 -134 20 -150 23 -17 3 -29 3 -26 1z"/>
<path d="M7033 5813 c-9 -3 -13 -26 -13 -64 0 -56 1 -59 28 -64 15 -4 35 -11
45 -16 17 -9 18 -5 15 57 -3 65 -4 68 -33 79 -16 7 -36 10 -42 8z"/>
<path d="M7183 5773 c-14 -5 -8 -73 8 -105 10 -19 67 -34 79 -22 4 5 11 30 14
57 7 47 7 48 -28 62 -36 15 -52 17 -73 8z"/>
<path d="M7346 5701 c-3 -22 -2 -49 2 -61 8 -22 65 -54 76 -43 3 4 6 34 6 69
0 56 -2 62 -22 68 -47 12 -55 7 -62 -33z"/>
<path d="M7524 5699 c-13 -22 -23 -83 -17 -111 5 -25 9 -28 48 -28 l43 0 -9
43 c-5 23 -11 52 -14 64 -6 27 -40 49 -51 32z"/>
<path d="M8652 5533 c4 -152 6 -171 27 -205 14 -24 20 -45 16 -58 -5 -16 5
-34 44 -76 28 -31 54 -67 57 -80 4 -15 21 -32 43 -43 20 -11 56 -35 81 -55 41
-33 46 -34 58 -19 32 43 9 158 -59 300 -53 111 -54 113 -39 113 23 0 89 -74
118 -132 40 -83 52 -147 52 -273 l0 -105 39 -19 c21 -11 85 -56 142 -101 114
-89 115 -89 126 -2 7 65 -17 146 -73 246 -45 81 -51 96 -35 96 22 0 201 -228
201 -255 0 -7 7 -18 16 -26 21 -17 96 -167 89 -178 -2 -5 25 -39 61 -76 46
-47 64 -73 61 -86 -3 -10 1 -23 9 -30 11 -9 16 -6 24 16 14 36 12 68 -5 144
-9 35 -14 66 -11 68 6 6 190 -144 204 -167 15 -24 7 -44 -14 -36 -23 9 -16
-30 11 -62 14 -17 25 -40 25 -53 1 -16 18 -39 51 -68 59 -51 72 -46 83 31 7
43 5 47 -16 50 -17 2 -22 9 -21 24 1 12 -9 32 -22 44 -46 43 -21 72 33 40 61
-37 67 -59 64 -210 -3 -169 5 -186 106 -231 37 -17 77 -39 89 -50 12 -12 31
-19 45 -17 18 3 10 10 -43 36 -119 58 -186 151 -130 182 29 15 51 2 51 -30 0
-22 12 -39 52 -74 29 -25 58 -46 64 -46 14 0 24 33 24 81 0 19 6 43 13 52 11
16 16 13 50 -27 36 -44 37 -47 23 -73 -8 -16 -15 -63 -17 -105 l-3 -78 75 -49
c42 -28 82 -57 89 -65 21 -26 28 -18 35 39 4 32 12 54 18 52 6 -2 19 -32 28
-66 10 -35 21 -66 24 -69 3 -4 21 -7 40 -8 22 0 46 -11 70 -32 65 -58 97 -30
59 52 -20 42 -13 69 18 64 15 -2 23 -10 23 -23 0 -13 8 -21 22 -23 15 -2 23
-11 25 -30 2 -17 15 -35 38 -50 39 -26 53 -52 39 -73 -6 -11 -17 -5 -49 26
l-40 39 1 -84 0 -85 58 -37 c66 -43 101 -49 101 -19 0 16 -10 21 -47 27 -53 7
-85 28 -76 50 7 20 23 17 49 -7 44 -41 78 -1 50 58 -32 67 18 72 57 6 9 -16
24 -73 32 -127 18 -120 30 -146 80 -171 22 -11 43 -24 47 -30 16 -22 27 14 30
99 5 141 33 121 58 -39 18 -114 30 -143 77 -185 77 -68 108 -57 83 29 -19 68
-23 108 -11 115 16 10 47 -47 82 -151 31 -94 72 -163 109 -183 31 -17 40 -4
40 54 0 34 5 58 14 65 13 11 13 17 0 46 -22 53 -17 71 31 118 26 26 45 54 45
67 0 32 -57 84 -115 105 -64 24 -75 32 -75 59 0 24 -38 66 -58 66 -17 0 -15
-8 8 -37 22 -29 27 -72 8 -78 -7 -2 -30 -6 -50 -10 -35 -5 -38 -4 -38 19 0 38
-10 55 -41 71 -42 22 -90 20 -96 -5 -7 -25 -15 -25 -36 -2 -21 23 -22 52 -2
52 8 0 32 18 54 40 22 22 48 40 57 40 22 0 -111 139 -164 172 -49 30 -48 17 3
-26 77 -63 90 -117 37 -145 -14 -7 -23 -5 -35 10 -9 10 -29 19 -46 19 -33 0
-81 34 -81 57 0 11 -7 7 -21 -11 -22 -28 -48 -33 -80 -16 -31 17 -23 44 16 59
19 7 40 21 45 32 11 20 7 22 -25 10 -45 -18 -121 43 -117 95 2 29 -46 51 -78
34 -20 -11 -19 -13 30 -57 51 -46 76 -80 66 -90 -5 -5 -105 68 -185 135 -31
26 -35 34 -33 74 3 44 2 45 -29 45 -22 0 -39 8 -53 24 l-21 25 -22 -26 -21
-25 -59 59 c-32 32 -83 77 -113 99 -104 76 -184 159 -203 209 -4 11 15 46 54
102 32 47 59 90 59 95 0 5 -8 12 -18 15 -10 4 -49 38 -85 76 -37 39 -72 70
-79 70 -7 0 9 -21 34 -47 62 -65 98 -120 98 -153 0 -33 -31 -75 -71 -95 -28
-15 -29 -15 -43 19 -8 18 -24 40 -36 49 -23 16 -60 65 -60 80 0 4 10 7 23 7
21 1 21 1 3 11 -14 9 -20 8 -26 -1 -6 -9 -21 -11 -48 -6 -23 3 -43 2 -47 -4
-3 -5 19 -29 50 -52 85 -65 157 -136 150 -148 -11 -18 -31 -11 -76 28 -24 21
-75 63 -113 94 -66 53 -68 56 -70 103 -2 47 -1 48 39 65 34 15 95 76 95 95 0
13 -80 122 -116 158 -42 42 -89 70 -106 65 -6 -2 7 -17 28 -33 64 -48 133
-116 155 -152 21 -33 21 -34 3 -54 -48 -53 -66 -48 -166 47 -36 35 -70 64 -75
64 -4 0 -16 -7 -26 -15 -14 -10 -16 -18 -9 -31 5 -9 7 -25 5 -34 -3 -12 9 -27
39 -48 57 -39 85 -71 93 -104 8 -31 -5 -37 -25 -13 -6 8 -46 36 -88 64 -110
70 -142 111 -142 180 0 21 -9 35 -38 55 -21 14 -53 42 -72 61 -22 23 -43 35
-59 34 -24 0 -25 -1 -7 -12 78 -50 100 -67 117 -93 47 -71 10 -71 -84 1 -182
138 -180 135 -182 198 -3 48 0 57 17 63 24 7 85 60 98 84 15 29 -22 14 -67
-26 -43 -39 -75 -43 -100 -14 -17 19 -83 29 -83 13 0 -5 21 -19 47 -33 58 -31
74 -54 52 -75 -14 -14 -22 -11 -89 34 -111 75 -176 135 -231 214 -38 55 -55
71 -71 69 -47 -8 -233 151 -245 209 -3 16 -10 29 -15 29 -7 0 -9 -61 -6 -167z
m2795 -2093 c40 -24 60 -58 39 -66 -9 -3 -28 10 -50 33 -52 55 -47 69 11 33z"/>
<path d="M5575 5675 c-5 -2 -37 -9 -70 -16 l-60 -13 50 -7 c28 -4 111 -7 185
-7 116 1 126 2 68 8 -78 10 -108 18 -108 31 0 9 -44 11 -65 4z"/>
<path d="M10988 5668 c-24 -19 -26 -38 -12 -93 18 -66 17 -263 -1 -490 -18
-225 -18 -275 0 -183 7 36 19 77 27 90 12 22 13 22 19 -17 3 -22 7 -35 8 -30
0 6 6 37 12 70 5 33 11 196 13 363 l2 302 -26 0 c-14 0 -33 -6 -42 -12z"/>
<path d="M7656 5652 c-10 -17 -4 -142 8 -142 6 0 21 -3 34 -6 21 -6 22 -4 22
70 0 59 -3 76 -14 76 -8 0 -21 3 -29 6 -8 3 -18 1 -21 -4z"/>
<path d="M7060 5639 c-26 -11 -70 -48 -70 -59 0 -4 23 -17 51 -29 77 -32 108
-27 87 13 -6 11 -14 34 -17 50 -7 34 -16 38 -51 25z"/>
<path d="M7174 5578 c3 -13 6 -38 6 -55 0 -31 2 -33 38 -33 44 0 130 -26 151
-46 21 -19 6 -44 -28 -44 -16 0 -33 -4 -36 -10 -3 -5 -1 -10 6 -10 6 0 56 -22
110 -50 91 -46 149 -62 149 -41 0 15 -23 28 -93 51 -69 22 -101 44 -94 64 7
22 38 17 117 -17 l80 -35 0 68 c0 75 -16 103 -54 98 -16 -2 -22 -11 -24 -35
-4 -45 -36 -62 -55 -31 -8 13 -18 36 -21 51 -6 26 -50 76 -68 77 -3 0 -10 -17
-15 -37 -12 -52 -36 -54 -56 -5 -12 31 -23 41 -55 50 -57 17 -65 16 -58 -10z"/>
<path d="M7797 5594 c-12 -12 -8 -124 4 -124 6 0 22 -9 36 -20 14 -11 29 -17
34 -14 5 3 9 36 9 73 0 63 -2 69 -22 74 -13 2 -30 7 -39 11 -8 4 -18 3 -22 0z"/>
<path d="M9003 5575 c-15 -13 -23 -25 -16 -25 7 0 25 11 40 25 15 13 23 25 16
25 -7 0 -25 -11 -40 -25z"/>
<path d="M6655 5570 l-60 -5 73 -14 c46 -8 77 -10 83 -4 17 17 -33 28 -96 23z"/>
<path d="M6260 5540 c0 -5 9 -10 20 -10 11 0 20 5 20 10 0 6 -9 10 -20 10 -11
0 -20 -4 -20 -10z"/>
<path d="M7942 5507 c-35 -37 -28 -117 9 -117 16 0 18 5 13 26 -5 20 0 32 25
58 l32 33 -26 11 c-32 15 -28 16 -53 -11z"/>
<path d="M5735 5513 c-88 -7 -76 -23 17 -23 94 0 148 8 148 21 0 9 -64 9 -165
2z"/>
<path d="M6586 5512 c-3 -3 8 -14 25 -24 22 -14 35 -16 42 -9 6 6 8 13 5 16
-9 10 -66 23 -72 17z"/>
<path d="M6900 5512 c0 -5 21 -17 46 -27 41 -15 48 -16 61 -2 14 13 10 16 -28
22 -24 3 -52 9 -61 11 -10 3 -18 1 -18 -4z"/>
<path d="M6150 5485 c0 -11 12 -15 48 -14 l47 0 -45 15 c-25 7 -46 14 -47 14
-2 0 -3 -7 -3 -15z"/>
<path d="M6053 5483 c9 -2 23 -2 30 0 6 3 -1 5 -18 5 -16 0 -22 -2 -12 -5z"/>
<path d="M6404 5475 c-11 -27 9 -36 102 -45 49 -5 99 -12 112 -16 17 -5 22 -2
22 12 0 17 -8 19 -67 19 -62 0 -86 7 -155 43 -5 2 -11 -4 -14 -13z"/>
<path d="M8042 5477 c-8 -9 -7 -27 5 -67 14 -48 14 -68 3 -166 -15 -132 -11
-158 30 -172 l30 -11 0 82 c-1 45 -7 95 -13 111 -11 25 -10 35 5 65 24 49 15
111 -22 146 -22 21 -29 23 -38 12z"/>
<path d="M6874 5440 c93 -35 119 -38 114 -13 -2 13 -21 20 -78 29 -115 19
-122 16 -36 -16z"/>
<path d="M7650 5426 c0 -41 -4 -49 -30 -64 l-29 -18 135 -85 c75 -46 139 -82
142 -79 4 3 7 23 7 45 0 22 4 46 8 53 18 27 30 4 31 -55 1 -66 17 -96 50 -91
19 3 21 10 24 88 1 47 -2 91 -6 97 -4 7 -22 16 -40 19 -26 5 -32 3 -32 -10 0
-11 -6 -16 -17 -14 -13 3 -17 12 -16 35 3 28 0 31 -39 41 -23 6 -45 9 -50 6
-4 -3 -8 -32 -8 -65 0 -52 -2 -59 -20 -59 -28 0 -40 30 -40 103 0 67 -6 79
-47 91 -22 7 -23 4 -23 -38z"/>
<path d="M9150 5466 c0 -2 8 -10 18 -17 15 -13 16 -12 3 4 -13 16 -21 21 -21
13z"/>
<path d="M5781 5436 c11 -9 90 -16 84 -6 -3 5 -25 10 -47 10 -23 0 -39 -2 -37
-4z"/>
<path d="M9040 5424 c0 -13 74 -89 103 -106 47 -27 51 -11 7 28 -21 19 -40 45
-42 57 -2 17 -11 23 -35 25 -18 2 -33 0 -33 -4z"/>
<path d="M6194 5404 c3 -9 6 -18 6 -21 0 -3 7 0 15 7 21 18 19 30 -6 30 -15 0
-19 -4 -15 -16z"/>
<path d="M7032 5410 c6 -18 96 -52 127 -48 23 3 20 6 -24 26 -65 30 -109 40
-103 22z"/>
<path d="M6375 5391 c6 -6 40 -14 75 -17 46 -5 62 -3 55 4 -5 6 -39 14 -75 18
-48 5 -62 3 -55 -5z"/>
<path d="M8172 5301 c-21 -157 -13 -260 23 -306 14 -18 15 -7 13 130 -2 83 1
176 6 208 8 53 7 57 -11 57 -17 0 -21 -12 -31 -89z"/>
<path d="M10507 5366 c11 -20 154 -186 160 -186 7 0 -6 16 -90 118 -66 78 -88
100 -70 68z"/>
<path d="M6380 5322 c0 -14 55 -32 96 -32 36 0 46 15 17 24 -44 13 -113 18
-113 8z"/>
<path d="M8270 5269 c0 -33 5 -69 10 -80 13 -24 40 -25 40 -1 0 9 10 32 21 51
l21 35 -33 28 c-51 42 -59 37 -59 -33z"/>
<path d="M8380 5202 c0 -62 16 -105 41 -110 13 -2 16 9 15 71 0 72 -1 75 -28
85 l-28 10 0 -56z"/>
<path d="M8490 5175 c-25 -64 9 -180 42 -147 19 19 14 92 -10 137 l-20 40 -12
-30z"/>
<path d="M9420 5106 c0 -39 18 -48 41 -20 15 18 2 47 -25 52 -12 3 -16 -4 -16
-32z"/>
<path d="M8270 5016 c0 -97 1 -105 21 -111 11 -4 23 -5 26 -2 2 3 7 42 10 87
5 75 4 82 -17 105 -13 14 -27 25 -32 25 -4 0 -8 -47 -8 -104z"/>
<path d="M9771 5069 c-12 -34 -38 -69 -52 -69 -5 0 -17 9 -28 21 -11 12 -27
19 -38 16 -15 -3 -13 -6 10 -15 16 -7 25 -17 22 -23 -10 -16 4 -59 19 -59 16
0 72 69 86 105 6 16 6 33 1 42 -6 12 -11 9 -20 -18z"/>
<path d="M8595 5057 c-11 -55 -2 -101 18 -105 16 -3 18 3 15 64 -3 74 -23 98
-33 41z"/>
<path d="M8380 4957 c0 -65 4 -99 14 -113 23 -31 37 -6 43 79 6 80 -9 127 -42
127 -12 0 -15 -18 -15 -93z"/>
<path d="M8706 4979 c-21 -73 -18 -309 4 -309 27 0 39 268 13 314 -9 17 -11
17 -17 -5z"/>
<path d="M8485 4950 c-4 -12 -3 -54 0 -95 7 -70 9 -75 31 -75 17 0 32 -12 50
-40 44 -66 59 -55 62 46 2 69 -1 91 -14 105 -21 24 -34 16 -34 -21 0 -24 -15
-40 -37 -40 -3 0 -3 22 0 49 4 34 1 54 -9 70 -19 27 -41 27 -49 1z"/>
<path d="M8846 4905 c-18 -17 -26 -34 -26 -58 0 -58 43 -80 55 -27 7 30 21 47
32 36 3 -3 6 -33 7 -68 l1 -63 38 -3 c29 -3 37 -7 37 -22 0 -13 14 -27 40 -40
23 -12 44 -28 47 -36 4 -10 16 -14 37 -12 25 2 32 -1 34 -19 4 -27 34 -47 98
-66 28 -8 49 -20 50 -28 0 -8 4 -24 8 -37 6 -19 13 -22 35 -17 23 5 31 1 45
-20 24 -37 36 -31 36 18 0 87 -85 170 -287 278 -92 50 -134 79 -190 135 l-72
72 -25 -23z"/>
<path d="M9410 4791 c0 -116 30 -175 119 -232 58 -38 76 -37 24 0 -49 36 -112
108 -120 139 -3 13 0 50 7 84 9 50 9 62 -2 69 -25 16 -28 9 -28 -60z"/>
<path d="M10947 4740 c-18 -185 -37 -419 -36 -460 l1 -45 15 35 c19 44 35 257
31 420 -3 123 -3 124 -11 50z"/>
<path d="M8825 4675 c-13 -44 -14 -62 -5 -89 16 -50 33 -61 64 -41 25 17 25
16 50 -34 44 -87 132 -134 170 -92 17 18 18 26 8 59 -20 63 -50 104 -75 100
-17 -2 -23 3 -25 20 -4 23 -39 45 -94 57 -21 4 -28 11 -28 30 0 21 -24 45 -44
45 -3 0 -13 -25 -21 -55z"/>
<path d="M9485 4690 c3 -5 11 -10 16 -10 6 0 7 5 4 10 -3 6 -11 10 -16 10 -6
0 -7 -4 -4 -10z"/>
<path d="M11140 4674 c0 -17 58 -109 86 -137 32 -32 84 -62 84 -49 0 10 -115
147 -149 176 -11 11 -21 15 -21 10z"/>
<path d="M9769 4553 c-33 -85 81 -264 189 -297 38 -12 25 2 -53 54 -80 54
-102 79 -83 98 9 9 9 15 0 24 -19 19 -14 65 8 81 20 14 20 15 -15 41 l-35 27
-11 -28z"/>
<path d="M9145 4495 c-3 -8 -7 -22 -10 -30 -7 -24 21 -116 44 -138 13 -13 39
-23 68 -27 42 -4 48 -8 45 -26 -2 -16 7 -28 35 -45 21 -12 46 -32 55 -43 9
-11 19 -19 21 -16 3 3 6 43 8 90 l4 85 -35 0 c-27 0 -35 5 -38 20 -6 32 -22
45 -47 39 -18 -4 -27 1 -41 25 -16 27 -82 81 -99 81 -3 0 -8 -7 -10 -15z"/>
<path d="M10500 4454 c25 -14 59 -37 75 -52 17 -15 7 -3 -21 26 -34 33 -61 52
-76 52 -19 0 -14 -5 22 -26z"/>
<path d="M9513 4429 c-8 -8 -8 -20 -1 -41 10 -28 8 -82 -7 -243 l-6 -60 128
-62 c70 -34 214 -118 320 -187 105 -69 194 -126 197 -126 3 0 6 27 6 59 0 43
-5 65 -19 82 -19 23 -20 23 -39 5 -29 -26 -48 -11 -27 21 23 34 10 45 -73 58
-67 12 -67 12 -65 42 3 29 -1 32 -44 47 -26 9 -62 30 -79 47 -20 19 -34 27
-38 20 -4 -6 -16 -11 -27 -11 -13 0 -19 7 -19 23 0 23 -17 47 -33 47 -4 0 -7
-10 -5 -21 4 -26 -22 -45 -47 -35 -13 4 -15 13 -11 31 8 31 -5 56 -56 115
l-39 44 33 28 c26 21 31 29 21 39 -7 7 -13 23 -13 34 0 12 -8 29 -18 38 -22
20 -25 20 -39 6z"/>
<path d="M10320 4389 c-7 -11 -10 -22 -8 -23 2 -2 22 -13 46 -26 23 -13 69
-56 103 -97 84 -103 115 -112 143 -42 21 53 20 56 -8 30 -31 -29 -60 -24 -64
11 -2 20 -10 28 -33 33 -19 4 -50 30 -87 71 -31 35 -62 64 -69 64 -7 0 -17 -9
-23 -21z"/>
<path d="M10412 4394 c14 -14 21 -15 30 -6 8 8 9 12 1 12 -6 0 -20 3 -30 6
-17 7 -17 6 -1 -12z"/>
<path d="M11366 4401 c-4 -5 5 -23 19 -39 14 -16 25 -35 25 -41 0 -15 49 -33
69 -26 11 4 1 19 -39 60 -56 56 -65 62 -74 46z"/>
<path d="M9610 4295 c8 -54 24 -75 42 -57 18 18 46 14 53 -8 12 -39 136 -137
291 -230 87 -52 185 -121 220 -152 34 -32 68 -58 75 -58 8 0 29 -9 48 -21 18
-11 35 -19 36 -17 2 2 5 21 7 43 3 38 1 41 -37 58 -94 42 -110 53 -124 84 -12
26 -30 39 -99 70 -64 28 -104 55 -166 111 -108 100 -189 159 -261 193 -85 41
-93 39 -85 -16z"/>
<path d="M10480 4336 c0 -2 12 -12 28 -21 l27 -18 -19 21 c-17 20 -36 29 -36
18z"/>
<path d="M10640 4306 c0 -9 5 -16 10 -16 6 0 10 4 10 9 0 6 -4 13 -10 16 -5 3
-10 -1 -10 -9z"/>
<path d="M10540 4270 c0 -5 7 -10 16 -10 8 0 12 5 9 10 -3 6 -10 10 -16 10 -5
0 -9 -4 -9 -10z"/>
<path d="M10790 4211 c0 -15 81 -101 96 -101 25 0 15 23 -31 67 -44 41 -65 53
-65 34z"/>
<path d="M11001 4194 c0 -11 3 -14 6 -6 3 7 2 16 -1 19 -3 4 -6 -2 -5 -13z"/>
<path d="M10610 4115 c-10 -12 -9 -15 8 -15 11 0 25 7 32 15 10 12 9 15 -8 15
-11 0 -25 -7 -32 -15z"/>
<path d="M11712 4102 c-10 -7 -3 -13 25 -25 22 -8 42 -11 48 -6 7 5 23 0 40
-11 39 -26 45 -25 45 4 0 20 -6 24 -42 30 -24 3 -56 8 -73 11 -16 3 -36 2 -43
-3z"/>
<path d="M11425 4087 c-28 -21 -1 -31 30 -11 14 9 25 18 25 20 0 9 -38 3 -55
-9z"/>
<path d="M11564 4062 c11 -22 13 -38 6 -61 -10 -35 0 -39 44 -19 28 12 50 41
67 86 l10 27 -22 -22 c-20 -19 -25 -20 -48 -9 -14 8 -36 17 -49 21 -23 7 -23
6 -8 -23z"/>
<path d="M10986 4042 c-3 -5 22 -28 55 -51 34 -24 72 -62 89 -89 23 -36 30
-42 30 -26 0 14 -28 51 -72 98 -70 72 -90 86 -102 68z"/>
<path d="M11750 3945 c0 -8 15 -32 34 -52 33 -36 33 -37 45 -15 14 27 7 42
-21 42 -11 0 -22 8 -25 20 -6 23 -33 27 -33 5z"/>
<path d="M10204 3798 c-4 -5 -9 -38 -11 -72 l-5 -61 71 -38 c87 -45 111 -47
111 -11 0 18 -22 49 -80 109 -44 46 -83 79 -86 73z"/>
<path d="M10431 3749 c-17 -49 -15 -62 8 -49 25 13 51 13 51 -1 0 -6 -12 -27
-27 -46 -22 -29 -28 -47 -28 -89 0 -68 30 -104 84 -101 31 2 36 -1 39 -21 2
-15 19 -30 50 -47 26 -13 61 -33 77 -44 35 -24 46 -26 39 -8 -6 17 20 52 34
43 7 -4 9 -19 6 -35 -5 -22 0 -34 22 -55 35 -31 50 -33 64 -5 18 32 9 64 -20
67 -35 5 -49 19 -43 42 5 17 0 20 -31 20 -27 0 -45 9 -75 35 -31 28 -40 32
-45 20 -9 -25 -26 -17 -42 20 -14 35 -28 44 -39 25 -3 -5 -13 -10 -22 -10 -11
0 -14 6 -9 26 4 16 1 35 -8 49 -13 20 -13 25 -1 41 8 11 15 40 15 65 0 48 4
43 -81 87 -4 1 -12 -11 -18 -29z"/>
<path d="M10570 3663 c0 -16 -3 -38 -6 -50 -7 -25 20 -43 76 -53 24 -4 36 -11
38 -25 6 -30 22 -45 48 -45 13 0 24 -4 24 -10 0 -5 14 -10 30 -10 20 0 30 -5
30 -15 0 -21 20 -18 50 6 24 21 24 21 5 36 -19 14 -168 87 -228 112 -22 9 -27
16 -22 32 7 22 -10 49 -31 49 -9 0 -14 -11 -14 -27z"/>
<path d="M11525 3580 c18 -20 45 -27 45 -12 0 8 -43 32 -57 32 -3 0 2 -9 12
-20z"/>
<path d="M10877 3432 l-27 -28 33 -12 c17 -7 58 -37 90 -67 53 -49 87 -68 87
-47 -1 35 -121 182 -150 182 -3 0 -18 -13 -33 -28z"/>
<path d="M10884 3295 c-11 -43 14 -82 78 -125 33 -22 64 -40 69 -40 5 0 9 15
9 34 0 19 3 41 6 50 4 12 -5 18 -40 27 -31 8 -56 23 -76 45 -16 19 -32 34 -35
34 -2 0 -7 -11 -11 -25z"/>
<path d="M11110 3271 c0 -31 4 -41 20 -46 25 -8 42 -38 34 -59 -7 -18 -30 -21
-39 -6 -3 6 -10 10 -16 10 -30 0 19 -110 64 -142 17 -12 49 -25 71 -28 36 -4
41 -8 44 -33 3 -24 7 -28 25 -23 15 4 33 -6 64 -35 23 -21 59 -47 78 -56 32
-15 37 -15 45 -3 18 28 10 55 -22 82 -28 22 -31 30 -22 45 18 29 44 29 44 -1
0 -14 5 -26 10 -26 15 0 12 66 -3 78 -8 7 -18 7 -27 2 -23 -15 -25 -13 -44 31
-20 45 -56 74 -194 155 -51 30 -98 64 -105 74 -18 30 -27 24 -27 -19z"/>
<path d="M11801 2980 l-1 -65 57 -51 58 -52 -13 -36 c-14 -37 -9 -91 9 -102 6
-3 18 1 28 10 24 22 31 20 31 -6 0 -35 16 -52 46 -53 23 0 29 -6 36 -33 9 -32
10 -33 48 -27 23 4 47 2 61 -5 27 -15 39 0 39 52 0 35 -3 39 -48 62 -27 14
-94 58 -149 99 -56 42 -119 88 -142 103 -40 26 -42 29 -36 68 3 25 -1 53 -9
71 -14 29 -14 29 -15 -35z"/>
<path d="M11890 2626 c0 -13 -3 -31 -6 -40 -4 -11 3 -19 22 -27 16 -6 51 -27
79 -48 62 -47 80 -54 96 -35 17 21 -9 46 -97 91 -59 30 -74 43 -74 61 0 12 -4
22 -10 22 -5 0 -10 -11 -10 -24z"/>
<path d="M12515 1915 c-19 -14 -17 -15 25 -13 25 2 44 8 43 13 -4 17 -47 17
-68 0z"/>
<path d="M4569 1303 c-8 -9 -48 -40 -89 -69 -77 -54 -127 -100 -118 -109 2 -3
33 20 69 51 81 71 139 95 139 59 0 -11 12 -7 44 17 41 30 43 34 28 51 -19 22
-55 22 -73 0z"/>
<path d="M4392 1270 c-33 -22 -66 -48 -73 -57 -8 -9 21 7 64 36 70 48 85 61
73 61 -2 0 -31 -18 -64 -40z"/>
<path d="M4179 1191 c-19 -16 -32 -31 -29 -34 3 -3 20 8 38 25 44 38 36 46 -9
9z"/>
<path d="M4733 1134 c-3 -8 0 -27 6 -41 9 -20 14 -23 25 -14 8 7 16 25 18 41
4 26 1 30 -19 30 -13 0 -26 -7 -30 -16z"/>
<path d="M1899 1088 c-68 -49 -84 -111 -48 -195 7 -18 11 -35 8 -38 -8 -7
-332 -32 -532 -41 l-168 -7 3 -26 c3 -22 10 -27 58 -39 30 -7 152 -17 270 -22
136 -6 237 -15 275 -25 99 -26 155 -5 155 60 0 36 17 57 25 31 17 -54 15 -53
36 -28 10 13 23 43 29 65 5 23 19 59 30 80 17 35 18 38 2 32 -35 -15 -47 -10
-50 18 -3 26 17 71 61 138 l18 26 -67 0 c-56 -1 -72 -5 -105 -29z"/>
<path d="M2838 1073 c6 -2 18 -2 25 0 6 3 1 5 -13 5 -14 0 -19 -2 -12 -5z"/>
<path d="M2763 1063 c9 -2 25 -2 35 0 9 3 1 5 -18 5 -19 0 -27 -2 -17 -5z"/>
<path d="M2650 1050 c-27 -6 -29 -8 -10 -8 14 -1 43 3 65 7 33 7 35 9 10 9
-16 -1 -46 -4 -65 -8z"/>
<path d="M3390 1035 c-11 -13 -8 -15 21 -15 20 0 50 -10 71 -25 43 -29 63 -32
54 -9 -4 9 -2 22 4 29 9 10 0 16 -40 24 -69 15 -95 14 -110 -4z"/>
<path d="M3583 1013 c9 -2 25 -2 35 0 9 3 1 5 -18 5 -19 0 -27 -2 -17 -5z"/>
<path d="M3038 973 c23 -2 59 -2 80 0 20 2 1 4 -43 4 -44 0 -61 -2 -37 -4z"/>
<path d="M5830 935 c0 -36 3 -45 18 -45 9 0 31 -9 47 -20 57 -38 101 -18 77
35 -8 17 -25 28 -58 36 -25 7 -48 18 -51 25 -3 8 -11 14 -19 14 -10 0 -14 -13
-14 -45z"/>
<path d="M2416 921 c-9 -14 32 -21 139 -22 145 -1 216 -32 143 -62 l-33 -14
49 -6 c27 -4 51 -5 53 -3 3 2 -1 14 -7 26 -22 42 -8 50 89 50 54 0 93 4 97 11
4 7 -10 9 -47 4 -30 -3 -126 1 -214 9 -181 18 -261 20 -269 7z"/>
<path d="M4060 864 c-82 -10 -161 -27 -255 -56 -156 -48 -195 -58 -271 -68
-109 -14 -149 4 -76 36 20 9 32 18 26 20 -6 3 -49 -12 -95 -32 -108 -48 -159
-54 -189 -24 -20 20 -26 21 -88 11 -49 -8 -72 -17 -91 -36 l-26 -26 45 25 c62
35 151 33 138 -4 -4 -12 -253 -89 -289 -90 -9 0 -19 7 -23 15 -7 19 -30 19
-88 -2 -44 -16 -48 -16 -66 0 -10 9 -23 17 -28 17 -12 0 -187 -69 -194 -77 -8
-8 114 9 133 19 10 5 15 13 13 17 -3 4 39 7 92 7 53 0 104 2 112 4 10 4 16 -3
18 -23 2 -16 7 -27 10 -25 4 2 33 16 65 32 63 32 166 42 174 19 3 -7 0 -13 -7
-13 -6 0 -34 -10 -61 -21 -50 -22 -68 -46 -26 -36 12 3 126 30 252 61 127 31
361 83 521 116 579 117 685 117 1158 4 104 -25 190 -43 192 -41 12 12 -392
116 -571 148 -115 20 -414 34 -505 23z"/>
<path d="M2445 840 c13 -21 145 -41 145 -22 0 5 -29 14 -64 20 -77 15 -89 15
-81 2z"/>
<path d="M6320 800 c0 -5 18 -10 40 -10 22 0 40 5 40 10 0 6 -18 10 -40 10
-22 0 -40 -4 -40 -10z"/>
<path d="M12445 795 c104 -15 281 -19 289 -6 8 12 -109 21 -254 20 l-125 -2
90 -12z"/>
<path d="M5575 770 c-33 -35 -30 -37 73 -43 l73 -4 -43 24 c-24 14 -50 31 -59
39 -13 12 -19 10 -44 -16z"/>
<path d="M5422 747 c-5 -7 -12 -25 -16 -42 -4 -16 -14 -37 -22 -46 -13 -15
-13 -17 0 -22 17 -7 36 20 36 47 0 9 9 25 20 36 24 24 24 26 6 33 -8 3 -19 0
-24 -6z"/>
<path d="M5900 712 c-27 -6 8 -13 145 -29 99 -13 214 -25 255 -27 l75 -5 -115
30 c-119 31 -286 46 -360 31z"/>
<path d="M2765 680 c-13 -5 -14 -9 -5 -9 8 0 24 4 35 9 13 5 14 9 5 9 -8 0
-24 -4 -35 -9z"/>
<path d="M4110 676 c0 -2 14 -9 30 -15 24 -8 30 -7 30 5 0 9 -10 14 -30 14
-16 0 -30 -2 -30 -4z"/>
<path d="M10175 670 c12 -20 76 -29 134 -19 101 19 92 28 -27 29 -70 0 -111
-4 -107 -10z"/>
<path d="M1582 658 c-7 -7 -12 -16 -12 -21 0 -12 78 2 110 19 24 12 22 13 -30
14 -31 0 -61 -5 -68 -12z"/>
<path d="M3737 664 c-24 -25 48 -33 79 -9 18 13 16 14 -27 15 -25 0 -49 -3
-52 -6z"/>
<path d="M6642 653 c-17 -7 -5 -23 19 -23 10 0 19 7 19 15 0 15 -14 18 -38 8z"/>
<path d="M7510 650 c0 -5 20 -24 45 -42 77 -57 67 -61 -122 -53 -111 4 -165 4
-158 -3 17 -16 202 -45 258 -39 47 4 56 9 94 53 24 27 43 52 43 57 0 5 -21 7
-47 6 -39 -3 -48 0 -51 14 -4 18 -62 25 -62 7z"/>
<path d="M3970 640 c-15 -9 1 -18 60 -34 24 -7 25 -7 5 9 -34 28 -50 34 -65
25z"/>
<path d="M10990 638 c0 -5 4 -17 9 -27 20 -37 -1 -44 -82 -27 -72 15 -257 23
-244 10 3 -3 72 -12 154 -20 239 -22 254 -20 228 33 -14 29 -65 53 -65 31z"/>
<path d="M9165 605 c77 -8 222 -25 322 -39 185 -26 231 -31 221 -20 -11 11
-153 43 -256 59 -64 9 -163 15 -264 14 l-163 -2 140 -12z"/>
<path d="M7784 595 c11 -8 27 -15 35 -15 13 1 12 4 -3 15 -11 8 -27 15 -35 15
-13 -1 -12 -4 3 -15z"/>
<path d="M9812 582 c1 -15 -1 -33 -6 -40 -5 -8 0 -12 13 -12 18 0 21 6 21 40
0 29 -4 40 -15 40 -11 0 -15 -9 -13 -28z"/>
<path d="M10131 588 c4 -32 -2 -38 -41 -38 -22 0 -57 7 -77 15 -33 14 -93 21
-81 10 3 -3 50 -16 104 -30 55 -13 106 -26 115 -30 11 -4 18 4 26 30 10 31 9
37 -7 45 -25 14 -41 13 -39 -2z"/>
<path d="M11170 596 c0 -4 16 -14 35 -22 24 -10 70 -14 157 -13 l123 1 -65 14
c-76 16 -250 30 -250 20z"/>
<path d="M12165 591 l-30 -7 25 -7 c39 -11 64 -8 86 8 18 13 17 14 -16 13 -19
0 -48 -3 -65 -7z"/>
<path d="M1881 572 c-17 -32 23 -55 57 -33 12 7 12 12 1 30 -17 26 -45 27 -58
3z"/>
<path d="M6990 580 c0 -5 7 -10 15 -10 8 0 15 5 15 10 0 6 -7 10 -15 10 -8 0
-15 -4 -15 -10z"/>
<path d="M10515 568 c-22 -5 -82 -11 -132 -11 -51 -1 -83 -5 -70 -8 37 -11
239 -41 243 -36 3 2 9 18 14 36 10 35 9 35 -55 19z"/>
<path d="M4870 562 c8 -5 49 -12 90 -16 47 -3 67 -2 54 3 -29 13 -163 24 -144
13z"/>
<path d="M8675 553 c-30 -11 -66 -14 -145 -9 -58 3 -117 8 -131 12 -21 5 -27
2 -31 -14 -8 -30 -121 -37 -377 -22 -144 8 -224 9 -241 2 -64 -25 596 -36 785
-13 102 12 190 35 200 52 8 12 -12 10 -60 -8z"/>
<path d="M6765 550 c-33 -6 -27 -7 38 -9 45 0 77 3 77 9 0 11 -53 11 -115 0z"/>
<path d="M5972 505 c0 -16 2 -22 5 -12 2 9 2 23 0 30 -3 6 -5 -1 -5 -18z"/>
<path d="M4517 513 c-4 -4 -4 -21 -1 -40 6 -29 3 -34 -22 -44 -31 -12 -307 -6
-484 10 -57 5 -99 5 -105 -1 -20 -18 18 -25 167 -32 83 -4 184 -12 224 -17 62
-10 80 -9 114 5 27 11 54 14 80 10 37 -6 40 -5 50 22 5 16 16 41 24 56 12 23
12 27 -1 32 -20 8 -38 8 -46 -1z"/>
<path d="M4680 510 l-35 -7 42 -2 c23 0 45 4 48 9 7 11 -3 11 -55 0z"/>
<path d="M6138 513 c6 -2 18 -2 25 0 6 3 1 5 -13 5 -14 0 -19 -2 -12 -5z"/>
<path d="M5270 501 c0 -16 78 -40 205 -63 152 -28 404 -32 448 -8 26 15 19 16
-110 16 -106 -1 -173 6 -288 26 -195 34 -255 41 -255 29z"/>
<path d="M3180 469 c-171 -11 -350 -34 -570 -74 -266 -49 -595 -118 -582 -123
7 -2 35 1 62 7 63 14 110 14 130 1 13 -9 13 -11 0 -20 -22 -15 2 -27 69 -35
43 -4 83 1 176 24 66 16 155 32 198 36 42 4 75 11 71 16 -9 15 -125 9 -214
-11 -103 -24 -179 -25 -206 -5 -27 21 -11 29 116 59 219 53 473 87 790 106
241 15 326 28 185 27 -55 0 -156 -3 -225 -8z"/>
<path d="M1731 449 c-42 -8 -111 -51 -111 -69 0 -5 19 2 43 15 23 13 68 28 99
35 32 6 60 16 63 21 7 11 -33 10 -94 -2z"/>
<path d="M8717 453 c-16 -15 -5 -23 33 -23 43 0 54 14 18 24 -30 8 -43 7 -51
-1z"/>
<path d="M9488 449 c-32 -18 -19 -29 32 -29 51 0 60 6 38 28 -15 15 -47 15
-70 1z"/>
<path d="M9064 399 c-9 -16 15 -29 54 -29 36 0 40 7 15 26 -22 16 -59 18 -69
3z"/>
<path d="M7020 374 c-45 -12 -160 -73 -139 -74 11 0 272 80 277 85 11 11 -86
3 -138 -11z"/>
<path d="M7470 380 c63 -5 150 -13 193 -19 43 -6 115 -10 160 -9 53 1 64 3 32
5 -27 2 -107 10 -177 18 -70 8 -171 14 -225 14 l-98 -2 115 -7z"/>
<path d="M1606 344 c-3 -9 -6 -27 -6 -40 0 -20 5 -24 29 -24 l29 0 -19 40
c-22 45 -24 47 -33 24z"/>
<path d="M3300 271 c0 -19 25 -35 40 -26 4 2 10 14 13 25 4 17 0 20 -24 20
-22 0 -29 -5 -29 -19z"/>
<path d="M6162 273 c-6 -10 -13 -32 -16 -49 -11 -51 -34 -64 -136 -76 -70 -9
-120 -9 -207 1 -64 6 -118 10 -120 7 -2 -2 39 -12 92 -21 116 -21 268 -17 332
10 36 14 44 23 58 66 9 27 21 51 26 55 11 6 2 24 -11 24 -5 0 -13 -8 -18 -17z"/>
<path d="M1765 271 c-3 -5 25 -12 62 -16 38 -3 78 -8 91 -11 24 -5 29 5 10 24
-14 14 -154 17 -163 3z"/>
<path d="M3800 255 c0 -16 36 -20 78 -8 33 8 8 23 -40 23 -27 0 -38 -4 -38
-15z"/>
<path d="M6314 254 c68 -25 167 -36 246 -28 l75 7 -150 18 c-82 10 -163 18
-180 18 -29 0 -29 -1 9 -15z"/>
<path d="M7690 250 c0 -12 45 -24 65 -16 29 11 15 26 -25 26 -22 0 -40 -4 -40
-10z"/>
<path d="M4070 220 c0 -13 90 -13 110 0 11 7 -3 10 -47 10 -36 0 -63 -4 -63
-10z"/>
<path d="M4713 209 c14 -8 22 -8 30 0 8 8 3 11 -18 11 -26 -1 -28 -2 -12 -11z"/>
<path d="M3532 190 c-12 -19 -10 -20 43 -20 40 0 55 4 55 14 0 30 -80 35 -98
6z"/>
<path d="M5140 120 c-11 -7 -2 -10 32 -10 26 0 50 5 53 10 8 13 -65 13 -85 0z"/>
<path d="M5160 51 c0 -10 24 -21 46 -21 8 0 11 6 8 15 -6 16 -54 21 -54 6z"/>
<path d="M5279 15 c18 -8 38 -15 45 -15 19 1 -38 29 -59 29 -14 0 -10 -4 14
-14z"/>
</g>
</svg>
